{
    "asset" : {
        "generator" : "Khronos glTF Blender I/O v1.5.17",
        "version" : "2.0"
    },
    "scene" : 0,
    "scenes" : [
        {
            "name" : "Scene",
            "nodes" : [
                0,
                1,
                2
            ]
        }
    ],
    "nodes" : [
        {
            "mesh" : 0,
            "name" : "Cube"
        },
        {
            "name" : "Light",
            "rotation" : [
                0.16907575726509094,
                0.7558803558349609,
                -0.27217137813568115,
                0.570947527885437
            ],
            "translation" : [
                4.076245307922363,
                5.903861999511719,
                -1.0054539442062378
            ]
        },
        {
            "name" : "Camera",
            "rotation" : [
                0.483536034822464,
                0.33687159419059753,
                -0.20870360732078552,
                0.7804827094078064
            ],
            "translation" : [
                7.358891487121582,
                4.958309173583984,
                6.925790786743164
            ]
        }
    ],
    "meshes" : [
        {
            "name" : "Cube",
            "primitives" : [
                {
                    "attributes" : {
                        "POSITION" : 0,
                        "NORMAL" : 1,
                        "TEXCOORD_0" : 2
                    },
                    "indices" : 3
                },
                {
                    "attributes" : {
                        "POSITION" : 4,
                        "NORMAL" : 5,
                        "TEXCOORD_0" : 6
                    },
                    "indices" : 7
                }
            ]
        }
    ],
    "accessors" : [
        {
            "bufferView" : 0,
            "componentType" : 5126,
            "count" : 423,
            "max" : [
                1,
                1,
                1.4899921417236328
            ],
            "min" : [
                -1,
                -1.1962593793869019,
                -1.8749029636383057
            ],
            "type" : "VEC3"
        },
        {
            "bufferView" : 1,
            "componentType" : 5126,
            "count" : 423,
            "type" : "VEC3"
        },
        {
            "bufferView" : 2,
            "componentType" : 5126,
            "count" : 423,
            "type" : "VEC2"
        },
        {
            "bufferView" : 3,
            "componentType" : 5123,
            "count" : 636,
            "type" : "SCALAR"
        },
        {
            "bufferView" : 4,
            "componentType" : 5126,
            "count" : 48,
            "max" : [
                0.34250473976135254,
                0.5703860521316528,
                0.9359870553016663
            ],
            "min" : [
                -0.360141396522522,
                0.46773990988731384,
                0.8961789608001709
            ],
            "type" : "VEC3"
        },
        {
            "bufferView" : 5,
            "componentType" : 5126,
            "count" : 48,
            "type" : "VEC3"
        },
        {
            "bufferView" : 6,
            "componentType" : 5126,
            "count" : 48,
            "type" : "VEC2"
        },
        {
            "bufferView" : 7,
            "componentType" : 5123,
            "count" : 72,
            "type" : "SCALAR"
        }
    ],
    "bufferViews" : [
        {
            "buffer" : 0,
            "byteLength" : 5076,
            "byteOffset" : 0
        },
        {
            "buffer" : 0,
            "byteLength" : 5076,
            "byteOffset" : 5076
        },
        {
            "buffer" : 0,
            "byteLength" : 3384,
            "byteOffset" : 10152
        },
        {
            "buffer" : 0,
            "byteLength" : 1272,
            "byteOffset" : 13536
        },
        {
            "buffer" : 0,
            "byteLength" : 576,
            "byteOffset" : 14808
        },
        {
            "buffer" : 0,
            "byteLength" : 576,
            "byteOffset" : 15384
        },
        {
            "buffer" : 0,
            "byteLength" : 384,
            "byteOffset" : 15960
        },
        {
            "buffer" : 0,
            "byteLength" : 144,
            "byteOffset" : 16344
        }
    ],
    "buffers" : [
        {
            "byteLength" : 16488,
            "uri" : "data:application/octet-stream;base64,"
        }
    ]
}
