{
    "asset" : {
        "generator" : "Khronos glTF Blender I/O v1.5.17",
        "version" : "2.0"
    },
    "scene" : 0,
    "scenes" : [
        {
            "name" : "Scene",
            "nodes" : [
                0,
                1,
                2
            ]
        }
    ],
    "nodes" : [
        {
            "mesh" : 0,
            "name" : "Cube"
        },
        {
            "name" : "Light",
            "rotation" : [
                0.16907575726509094,
                0.7558803558349609,
                -0.27217137813568115,
                0.570947527885437
            ],
            "translation" : [
                4.076245307922363,
                5.903861999511719,
                -1.0054539442062378
            ]
        },
        {
            "name" : "Camera",
            "rotation" : [
                0.483536034822464,
                0.33687159419059753,
                -0.20870360732078552,
                0.7804827094078064
            ],
            "translation" : [
                7.358891487121582,
                4.958309173583984,
                6.925790786743164
            ]
        }
    ],
    "meshes" : [
        {
            "name" : "Cube",
            "primitives" : [
                {
                    "attributes" : {
                        "POSITION" : 0,
                        "NORMAL" : 1,
                        "TEXCOORD_0" : 2
                    },
                    "indices" : 3
                },
                {
                    "attributes" : {
                        "POSITION" : 4,
                        "NORMAL" : 5,
                        "TEXCOORD_0" : 6
                    },
                    "indices" : 7
                }
            ]
        }
    ],
    "accessors" : [
        {
            "bufferView" : 0,
            "componentType" : 5126,
            "count" : 1216,
            "max" : [
                0.9202826023101807,
                0.8876725435256958,
                1.485824465751648
            ],
            "min" : [
                -0.9202826023101807,
                -0.9797245860099792,
                -1.3925021886825562
            ],
            "type" : "VEC3"
        },
        {
            "bufferView" : 1,
            "componentType" : 5126,
            "count" : 1216,
            "type" : "VEC3"
        },
        {
            "bufferView" : 2,
            "componentType" : 5126,
            "count" : 1216,
            "type" : "VEC2"
        },
        {
            "bufferView" : 3,
            "componentType" : 5123,
            "count" : 1824,
            "type" : "SCALAR"
        },
        {
            "bufferView" : 4,
            "componentType" : 5126,
            "count" : 448,
            "max" : [
                0.3382278084754944,
                0.56853848695755,
                0.9343284964561462
            ],
            "min" : [
                -0.3558645248413086,
                0.4695923924446106,
                0.89783775806427
            ],
            "type" : "VEC3"
        },
        {
            "bufferView" : 5,
            "componentType" : 5126,
            "count" : 448,
            "type" : "VEC3"
        },
        {
            "bufferView" : 6,
            "componentType" : 5126,
            "count" : 448,
            "type" : "VEC2"
        },
        {
            "bufferView" : 7,
            "componentType" : 5123,
            "count" : 672,
            "type" : "SCALAR"
        }
    ],
    "bufferViews" : [
        {
            "buffer" : 0,
            "byteLength" : 14592,
            "byteOffset" : 0
        },
        {
            "buffer" : 0,
            "byteLength" : 14592,
            "byteOffset" : 14592
        },
        {
            "buffer" : 0,
            "byteLength" : 9728,
            "byteOffset" : 29184
        },
        {
            "buffer" : 0,
            "byteLength" : 3648,
            "byteOffset" : 38912
        },
        {
            "buffer" : 0,
            "byteLength" : 5376,
            "byteOffset" : 42560
        },
        {
            "buffer" : 0,
            "byteLength" : 5376,
            "byteOffset" : 47936
        },
        {
            "buffer" : 0,
            "byteLength" : 3584,
            "byteOffset" : 53312
        },
        {
            "buffer" : 0,
            "byteLength" : 1344,
            "byteOffset" : 56896
        }
    ],
    "buffers" : [
        {
            "byteLength" : 58240,
            "uri" : "data:application/octet-stream;base64,"
        }
    ]
}
