{
    "asset" : {
        "generator" : "Khronos glTF Blender I/O v1.5.17",
        "version" : "2.0"
    },
    "scene" : 0,
    "scenes" : [
        {
            "name" : "Scene",
            "nodes" : [
                0,
                1
            ]
        }
    ],
    "nodes" : [
        {
            "mesh" : 0,
            "name" : "hilly"
        },
        {
            "mesh" : 1,
            "name" : "rocky",
            "translation" : [
                2.8353383541107178,
                -0.023908907547593117,
                0
            ]
        }
    ],
    "meshes" : [
        {
            "name" : "Landscape.003",
            "primitives" : [
                {
                    "attributes" : {
                        "POSITION" : 0,
                        "NORMAL" : 1
                    },
                    "indices" : 2
                }
            ]
        },
        {
            "name" : "Landscape.004",
            "primitives" : [
                {
                    "attributes" : {
                        "POSITION" : 3,
                        "NORMAL" : 4
                    },
                    "indices" : 5
                }
            ]
        }
    ],
    "accessors" : [
        {
            "bufferView" : 0,
            "componentType" : 5126,
            "count" : 9334,
            "max" : [
                10,
                0.2658029794692993,
                2.5
            ],
            "min" : [
                -10.000001907348633,
                -0.0022189347073435783,
                -2.5
            ],
            "type" : "VEC3"
        },
        {
            "bufferView" : 1,
            "componentType" : 5126,
            "count" : 9334,
            "type" : "VEC3"
        },
        {
            "bufferView" : 2,
            "componentType" : 5123,
            "count" : 9672,
            "type" : "SCALAR"
        },
        {
            "bufferView" : 3,
            "componentType" : 5126,
            "count" : 9280,
            "max" : [
                10,
                0.49578142166137695,
                2.5
            ],
            "min" : [
                -10,
                -0.36253562569618225,
                -2.5
            ],
            "type" : "VEC3"
        },
        {
            "bufferView" : 4,
            "componentType" : 5126,
            "count" : 9280,
            "type" : "VEC3"
        },
        {
            "bufferView" : 5,
            "componentType" : 5123,
            "count" : 9672,
            "type" : "SCALAR"
        }
    ],
    "bufferViews" : [
        {
            "buffer" : 0,
            "byteLength" : 112008,
            "byteOffset" : 0
        },
        {
            "buffer" : 0,
            "byteLength" : 112008,
            "byteOffset" : 112008
        },
        {
            "buffer" : 0,
            "byteLength" : 19344,
            "byteOffset" : 224016
        },
        {
            "buffer" : 0,
            "byteLength" : 111360,
            "byteOffset" : 243360
        },
        {
            "buffer" : 0,
            "byteLength" : 111360,
            "byteOffset" : 354720
        },
        {
            "buffer" : 0,
            "byteLength" : 19344,
            "byteOffset" : 466080
        }
    ],
    "buffers" : [
        {
            "byteLength" : 485424,
            "uri" : "data:application/octet-stream;base64,"
        }
    ]
}
