{
    "asset" : {
        "generator" : "Khronos glTF Blender I/O v1.5.17",
        "version" : "2.0"
    },
    "scene" : 0,
    "scenes" : [
        {
            "name" : "Scene",
            "nodes" : [
                0,
                1,
                2,
                3,
                4
            ]
        }
    ],
    "nodes" : [
        {
            "mesh" : 0,
            "name" : "Cube"
        },
        {
            "name" : "Light",
            "rotation" : [
                0.16907575726509094,
                0.7558803558349609,
                -0.27217137813568115,
                0.570947527885437
            ],
            "translation" : [
                4.076245307922363,
                5.903861999511719,
                -1.0054539442062378
            ]
        },
        {
            "name" : "Camera",
            "rotation" : [
                0.483536034822464,
                0.33687159419059753,
                -0.20870360732078552,
                0.7804827094078064
            ],
            "translation" : [
                7.358891487121582,
                4.958309173583984,
                6.925790786743164
            ]
        },
        {
            "mesh" : 1,
            "name" : "Cube.001",
            "scale" : [
                1.523019552230835,
                1,
                2.3511385917663574
            ],
            "translation" : [
                0,
                5.906691551208496,
                0
            ]
        },
        {
            "mesh" : 2,
            "name" : "Cube.002",
            "rotation" : [
                0,
                0.6937738656997681,
                0,
                0.7201929092407227
            ],
            "scale" : [
                1.523019552230835,
                1,
                2.3511385917663574
            ],
            "translation" : [
                0,
                5.906691551208496,
                0
            ]
        }
    ],
    "meshes" : [
        {
            "name" : "Cube",
            "primitives" : [
                {
                    "attributes" : {
                        "POSITION" : 0,
                        "NORMAL" : 1,
                        "TEXCOORD_0" : 2
                    },
                    "indices" : 3
                }
            ]
        },
        {
            "name" : "Cube.001",
            "primitives" : [
                {
                    "attributes" : {
                        "POSITION" : 4,
                        "NORMAL" : 5,
                        "TEXCOORD_0" : 6
                    },
                    "indices" : 7
                }
            ]
        },
        {
            "name" : "Cube.002",
            "primitives" : [
                {
                    "attributes" : {
                        "POSITION" : 8,
                        "NORMAL" : 9,
                        "TEXCOORD_0" : 10
                    },
                    "indices" : 7
                }
            ]
        }
    ],
    "accessors" : [
        {
            "bufferView" : 0,
            "componentType" : 5126,
            "count" : 365,
            "max" : [
                3,
                9.088147163391113,
                3
            ],
            "min" : [
                -3,
                -2,
                -3
            ],
            "type" : "VEC3"
        },
        {
            "bufferView" : 1,
            "componentType" : 5126,
            "count" : 365,
            "type" : "VEC3"
        },
        {
            "bufferView" : 2,
            "componentType" : 5126,
            "count" : 365,
            "type" : "VEC2"
        },
        {
            "bufferView" : 3,
            "componentType" : 5123,
            "count" : 756,
            "type" : "SCALAR"
        },
        {
            "bufferView" : 4,
            "componentType" : 5126,
            "count" : 24,
            "max" : [
                1,
                1,
                1
            ],
            "min" : [
                -1,
                -1,
                -1
            ],
            "type" : "VEC3"
        },
        {
            "bufferView" : 5,
            "componentType" : 5126,
            "count" : 24,
            "type" : "VEC3"
        },
        {
            "bufferView" : 6,
            "componentType" : 5126,
            "count" : 24,
            "type" : "VEC2"
        },
        {
            "bufferView" : 7,
            "componentType" : 5123,
            "count" : 36,
            "type" : "SCALAR"
        },
        {
            "bufferView" : 8,
            "componentType" : 5126,
            "count" : 24,
            "max" : [
                1,
                1,
                1
            ],
            "min" : [
                -1,
                -1,
                -1
            ],
            "type" : "VEC3"
        },
        {
            "bufferView" : 9,
            "componentType" : 5126,
            "count" : 24,
            "type" : "VEC3"
        },
        {
            "bufferView" : 10,
            "componentType" : 5126,
            "count" : 24,
            "type" : "VEC2"
        }
    ],
    "bufferViews" : [
        {
            "buffer" : 0,
            "byteLength" : 4380,
            "byteOffset" : 0
        },
        {
            "buffer" : 0,
            "byteLength" : 4380,
            "byteOffset" : 4380
        },
        {
            "buffer" : 0,
            "byteLength" : 2920,
            "byteOffset" : 8760
        },
        {
            "buffer" : 0,
            "byteLength" : 1512,
            "byteOffset" : 11680
        },
        {
            "buffer" : 0,
            "byteLength" : 288,
            "byteOffset" : 13192
        },
        {
            "buffer" : 0,
            "byteLength" : 288,
            "byteOffset" : 13480
        },
        {
            "buffer" : 0,
            "byteLength" : 192,
            "byteOffset" : 13768
        },
        {
            "buffer" : 0,
            "byteLength" : 72,
            "byteOffset" : 13960
        },
        {
            "buffer" : 0,
            "byteLength" : 288,
            "byteOffset" : 14032
        },
        {
            "buffer" : 0,
            "byteLength" : 288,
            "byteOffset" : 14320
        },
        {
            "buffer" : 0,
            "byteLength" : 192,
            "byteOffset" : 14608
        }
    ],
    "buffers" : [
        {
            "byteLength" : 14800,
            "uri" : "data:application/octet-stream;base64,"
        }
    ]
}
